<svg width="800" height="500" xmlns="http://www.w3.org/2000/svg" style="background:white;font-family:sans-serif">
<text x="400" y="38" font-size="18" font-weight="bold" text-anchor="middle" fill="#222">Topic Cluster Frequencies in Merged Copilot PRs</text>
<line x1="200" y1="60" x2="200" y2="440" stroke="#999"/>
<line x1="200" y1="440" x2="720" y2="440" stroke="#999"/>
<line x1="200.0" y1="440" x2="200.0" y2="445" stroke="#999"/>
<text x="200.0" y="458.0" font-size="10" text-anchor="middle" fill="#555">0</text>
<line x1="200.0" y1="60" x2="200.0" y2="440" stroke="#eee"/>
<line x1="304.0" y1="440" x2="304.0" y2="445" stroke="#999"/>
<text x="304.0" y="458.0" font-size="10" text-anchor="middle" fill="#555">5</text>
<line x1="304.0" y1="60" x2="304.0" y2="440" stroke="#eee"/>
<line x1="408.0" y1="440" x2="408.0" y2="445" stroke="#999"/>
<text x="408.0" y="458.0" font-size="10" text-anchor="middle" fill="#555">10</text>
<line x1="408.0" y1="60" x2="408.0" y2="440" stroke="#eee"/>
<line x1="512.0" y1="440" x2="512.0" y2="445" stroke="#999"/>
<text x="512.0" y="458.0" font-size="10" text-anchor="middle" fill="#555">15</text>
<line x1="512.0" y1="60" x2="512.0" y2="440" stroke="#eee"/>
<line x1="616.0" y1="440" x2="616.0" y2="445" stroke="#999"/>
<text x="616.0" y="458.0" font-size="10" text-anchor="middle" fill="#555">20</text>
<line x1="616.0" y1="60" x2="616.0" y2="440" stroke="#eee"/>
<line x1="720.0" y1="440" x2="720.0" y2="445" stroke="#999"/>
<text x="720.0" y="458.0" font-size="10" text-anchor="middle" fill="#555">25</text>
<line x1="720.0" y1="60" x2="720.0" y2="440" stroke="#eee"/>
<rect x="200" y="64.0" width="83.2" height="55.3" fill="#42A5F5" opacity="0.85"/>
<text x="288.2" y="95.7" font-size="12" fill="#333">4</text>
<text x="192.0" y="95.7" font-size="12" text-anchor="end" fill="#444">memory & cache</text>
<rect x="200" y="127.3" width="104.0" height="55.3" fill="#66BB6A" opacity="0.85"/>
<text x="309.0" y="159.0" font-size="12" fill="#333">5</text>
<text x="192.0" y="159.0" font-size="12" text-anchor="end" fill="#444">bug fix & cleanup</text>
<rect x="200" y="190.7" width="124.8" height="55.3" fill="#FFA726" opacity="0.85"/>
<text x="329.8" y="222.3" font-size="12" fill="#333">6</text>
<text x="192.0" y="222.3" font-size="12" text-anchor="end" fill="#444">ci & infrastructure</text>
<rect x="200" y="254.0" width="228.8" height="55.3" fill="#EF5350" opacity="0.85"/>
<text x="433.8" y="285.7" font-size="12" fill="#333">11</text>
<text x="192.0" y="285.7" font-size="12" text-anchor="end" fill="#444">docs & workflow</text>
<rect x="200" y="317.3" width="291.2" height="55.3" fill="#AB47BC" opacity="0.85"/>
<text x="496.2" y="349.0" font-size="12" fill="#333">14</text>
<text x="192.0" y="349.0" font-size="12" text-anchor="end" fill="#444">feature & model</text>
<rect x="200" y="380.7" width="520.0" height="55.3" fill="#26C6DA" opacity="0.85"/>
<text x="725.0" y="412.3" font-size="12" fill="#333">25</text>
<text x="192.0" y="412.3" font-size="12" text-anchor="end" fill="#444">code quality & tests</text>

<text x="460" y="490" font-size="13" text-anchor="middle" fill="#444">Number of PRs</text>
</svg>