<svg width="800" height="480" xmlns="http://www.w3.org/2000/svg" style="background:white;font-family:sans-serif">
<text x="400" y="38" font-size="18" font-weight="bold" text-anchor="middle" fill="#222">Sentiment Polarity Distribution of Merged Copilot PRs</text>
<line x1="70" y1="60" x2="70" y2="400" stroke="#999"/>
<line x1="70" y1="400" x2="760" y2="400" stroke="#999"/>
<rect x="72.0" y="60.0" width="65.0" height="340.0" fill="#F44336" opacity="0.8"/>
<text x="104.5" y="56.0" font-size="11" text-anchor="middle" fill="#333">30</text>
<rect x="141.0" y="388.7" width="65.0" height="11.3" fill="#F44336" opacity="0.8"/>
<text x="173.5" y="384.7" font-size="11" text-anchor="middle" fill="#333">1</text>
<rect x="210.0" y="343.3" width="65.0" height="56.7" fill="#F44336" opacity="0.8"/>
<text x="242.5" y="339.3" font-size="11" text-anchor="middle" fill="#333">5</text>
<rect x="279.0" y="343.3" width="65.0" height="56.7" fill="#F44336" opacity="0.8"/>
<text x="311.5" y="339.3" font-size="11" text-anchor="middle" fill="#333">5</text>
<rect x="348.0" y="388.7" width="65.0" height="11.3" fill="#F44336" opacity="0.8"/>
<text x="380.5" y="384.7" font-size="11" text-anchor="middle" fill="#333">1</text>
<rect x="417.0" y="286.7" width="65.0" height="113.3" fill="#4CAF50" opacity="0.8"/>
<text x="449.5" y="282.7" font-size="11" text-anchor="middle" fill="#333">10</text>
<rect x="486.0" y="388.7" width="65.0" height="11.3" fill="#4CAF50" opacity="0.8"/>
<text x="518.5" y="384.7" font-size="11" text-anchor="middle" fill="#333">1</text>
<rect x="555.0" y="366.0" width="65.0" height="34.0" fill="#4CAF50" opacity="0.8"/>
<text x="587.5" y="362.0" font-size="11" text-anchor="middle" fill="#333">3</text>
<rect x="624.0" y="400.0" width="65.0" height="0.0" fill="#4CAF50" opacity="0.8"/>
<rect x="693.0" y="298.0" width="65.0" height="102.0" fill="#4CAF50" opacity="0.8"/>
<text x="725.5" y="294.0" font-size="11" text-anchor="middle" fill="#333">9</text>
<text x="70.0" y="418.0" font-size="10" text-anchor="middle" fill="#555">-1.0</text>
<text x="139.0" y="418.0" font-size="10" text-anchor="middle" fill="#555">-0.8</text>
<text x="208.0" y="418.0" font-size="10" text-anchor="middle" fill="#555">-0.6</text>
<text x="277.0" y="418.0" font-size="10" text-anchor="middle" fill="#555">-0.4</text>
<text x="346.0" y="418.0" font-size="10" text-anchor="middle" fill="#555">-0.2</text>
<text x="415.0" y="418.0" font-size="10" text-anchor="middle" fill="#555">0.0</text>
<text x="484.0" y="418.0" font-size="10" text-anchor="middle" fill="#555">0.2</text>
<text x="553.0" y="418.0" font-size="10" text-anchor="middle" fill="#555">0.4</text>
<text x="622.0" y="418.0" font-size="10" text-anchor="middle" fill="#555">0.6</text>
<text x="691.0" y="418.0" font-size="10" text-anchor="middle" fill="#555">0.8</text>
<text x="760.0" y="418.0" font-size="10" text-anchor="middle" fill="#555">1.0</text>
<line x1="285.3" y1="60" x2="285.3" y2="400" stroke="#E91E63" stroke-width="2.5" stroke-dasharray="6,4"/>
<text x="290.3" y="80.0" font-size="11" fill="#E91E63">Mean: -0.376</text>
<line x1="65" y1="400.0" x2="70" y2="400.0" stroke="#999"/>
<text x="62.0" y="404.0" font-size="10" text-anchor="end" fill="#555">0</text>
<line x1="65" y1="332.0" x2="70" y2="332.0" stroke="#999"/>
<text x="62.0" y="336.0" font-size="10" text-anchor="end" fill="#555">6</text>
<line x1="65" y1="264.0" x2="70" y2="264.0" stroke="#999"/>
<text x="62.0" y="268.0" font-size="10" text-anchor="end" fill="#555">12</text>
<line x1="65" y1="196.0" x2="70" y2="196.0" stroke="#999"/>
<text x="62.0" y="200.0" font-size="10" text-anchor="end" fill="#555">18</text>
<line x1="65" y1="128.0" x2="70" y2="128.0" stroke="#999"/>
<text x="62.0" y="132.0" font-size="10" text-anchor="end" fill="#555">24</text>
<line x1="65" y1="60.0" x2="70" y2="60.0" stroke="#999"/>
<text x="62.0" y="64.0" font-size="10" text-anchor="end" fill="#555">30</text>

<text x="400" y="470" font-size="13" text-anchor="middle" fill="#444">Sentiment Polarity (-1=Negative, +1=Positive)</text>
<text x="18" y="230" font-size="13" text-anchor="middle" fill="#444" transform="rotate(-90,18,230)">Count</text>
<rect x="600" y="20" width="12" height="12" fill="#4CAF50" opacity="0.8"/>
<text x="616" y="31" font-size="11" fill="#444">Positive</text>
<rect x="660" y="20" width="12" height="12" fill="#9E9E9E" opacity="0.8"/>
<text x="676" y="31" font-size="11" fill="#444">Neutral</text>
<rect x="716" y="20" width="12" height="12" fill="#F44336" opacity="0.8"/>
<text x="732" y="31" font-size="11" fill="#444">Negative</text>
</svg>