<svg width="800" height="520" xmlns="http://www.w3.org/2000/svg" style="background:white;font-family:sans-serif">
<text x="400" y="38" font-size="18" font-weight="bold" text-anchor="middle" fill="#222">Top 15 Keywords in Copilot PR Titles &amp; Bodies</text>
<line x1="130" y1="60" x2="130" y2="460" stroke="#999"/>
<line x1="130" y1="460" x2="720" y2="460" stroke="#999"/>
<line x1="130.0" y1="460" x2="130.0" y2="465" stroke="#999"/>
<text x="130.0" y="478.0" font-size="10" text-anchor="middle" fill="#555">0</text>
<line x1="130.0" y1="60" x2="130.0" y2="460" stroke="#eee"/>
<line x1="247.7" y1="460" x2="247.7" y2="465" stroke="#999"/>
<text x="247.7" y="478.0" font-size="10" text-anchor="middle" fill="#555">331</text>
<line x1="247.7" y1="60" x2="247.7" y2="460" stroke="#eee"/>
<line x1="365.4" y1="460" x2="365.4" y2="465" stroke="#999"/>
<text x="365.4" y="478.0" font-size="10" text-anchor="middle" fill="#555">662</text>
<line x1="365.4" y1="60" x2="365.4" y2="460" stroke="#eee"/>
<line x1="483.1" y1="460" x2="483.1" y2="465" stroke="#999"/>
<text x="483.1" y="478.0" font-size="10" text-anchor="middle" fill="#555">993</text>
<line x1="483.1" y1="60" x2="483.1" y2="460" stroke="#eee"/>
<line x1="600.9" y1="460" x2="600.9" y2="465" stroke="#999"/>
<text x="600.9" y="478.0" font-size="10" text-anchor="middle" fill="#555">1324</text>
<line x1="600.9" y1="60" x2="600.9" y2="460" stroke="#eee"/>
<line x1="718.6" y1="460" x2="718.6" y2="465" stroke="#999"/>
<text x="718.6" y="478.0" font-size="10" text-anchor="middle" fill="#555">1655</text>
<line x1="718.6" y1="60" x2="718.6" y2="460" stroke="#eee"/>
<rect x="130" y="63.0" width="43.4" height="20.7" fill="#BBDEFB"/>
<text x="178.4" y="77.3" font-size="11" fill="#333">122</text>
<text x="122.0" y="77.3" font-size="11" text-anchor="end" fill="#444">repos</text>
<rect x="130" y="89.7" width="43.7" height="20.7" fill="#90CAF9"/>
<text x="178.7" y="104.0" font-size="11" fill="#333">123</text>
<text x="122.0" y="104.0" font-size="11" text-anchor="end" fill="#444">ref</text>
<rect x="130" y="116.3" width="44.5" height="20.7" fill="#64B5F6"/>
<text x="179.5" y="130.7" font-size="11" fill="#333">125</text>
<text x="122.0" y="130.7" font-size="11" text-anchor="end" fill="#444">toplevel</text>
<rect x="130" y="143.0" width="44.8" height="20.7" fill="#42A5F5"/>
<text x="179.8" y="157.3" font-size="11" fill="#333">126</text>
<text x="122.0" y="157.3" font-size="11" text-anchor="end" fill="#444">actions</text>
<rect x="130" y="169.7" width="44.8" height="20.7" fill="#2196F3"/>
<text x="179.8" y="184.0" font-size="11" fill="#333">126</text>
<text x="122.0" y="184.0" font-size="11" text-anchor="end" fill="#444">tags</text>
<rect x="130" y="196.3" width="48.0" height="20.7" fill="#1E88E5"/>
<text x="183.0" y="210.7" font-size="11" fill="#333">135</text>
<text x="122.0" y="210.7" font-size="11" text-anchor="end" fill="#444">show</text>
<rect x="130" y="223.0" width="54.1" height="20.7" fill="#1976D2"/>
<text x="189.1" y="237.3" font-size="11" fill="#333">152</text>
<text x="122.0" y="237.3" font-size="11" text-anchor="end" fill="#444">api</text>
<rect x="130" y="249.7" width="60.5" height="20.7" fill="#1565C0"/>
<text x="195.5" y="264.0" font-size="11" fill="#333">170</text>
<text x="122.0" y="264.0" font-size="11" text-anchor="end" fill="#444">object</text>
<rect x="130" y="276.3" width="96.4" height="20.7" fill="#0D47A1"/>
<text x="231.4" y="290.7" font-size="11" fill="#333">271</text>
<text x="122.0" y="290.7" font-size="11" text-anchor="end" fill="#444">usr</text>
<rect x="130" y="303.0" width="127.0" height="20.7" fill="#E3F2FD"/>
<text x="262.0" y="317.3" font-size="11" fill="#333">357</text>
<text x="122.0" y="317.3" font-size="11" text-anchor="end" fill="#444">bin</text>
<rect x="130" y="329.7" width="154.7" height="20.7" fill="#BBDEFB"/>
<text x="289.7" y="344.0" font-size="11" fill="#333">435</text>
<text x="122.0" y="344.0" font-size="11" text-anchor="end" fill="#444">git</text>
<rect x="130" y="356.3" width="585.4" height="20.7" fill="#90CAF9"/>
<text x="720.4" y="370.7" font-size="11" fill="#333">1646</text>
<text x="122.0" y="370.7" font-size="11" text-anchor="end" fill="#444">http</text>
<rect x="130" y="383.0" width="585.7" height="20.7" fill="#64B5F6"/>
<text x="720.7" y="397.3" font-size="11" fill="#333">1647</text>
<text x="122.0" y="397.3" font-size="11" text-anchor="end" fill="#444">triggering</text>
<rect x="130" y="409.7" width="588.9" height="20.7" fill="#42A5F5"/>
<text x="723.9" y="424.0" font-size="11" fill="#333">1656</text>
<text x="122.0" y="424.0" font-size="11" text-anchor="end" fill="#444">block</text>
<rect x="130" y="436.3" width="590.0" height="20.7" fill="#2196F3"/>
<text x="725.0" y="450.7" font-size="11" fill="#333">1659</text>
<text x="122.0" y="450.7" font-size="11" text-anchor="end" fill="#444">command</text>

<text x="425" y="510" font-size="13" text-anchor="middle" fill="#444">Frequency</text>
</svg>